<svg width="96" height="25" viewBox="0 0 96 25" fill="none" xmlns="http://www.w3.org/2000/svg">
<path d="M14.04 19L12.3686 14.5771H3.83143L2.16 19H0.257143L7.17429 0.999999H9.02571L15.9429 19H14.04ZM4.47429 12.88H11.7257L8.1 3.23714L4.47429 12.88ZM24.8884 5.83429C26.7227 5.83429 28.2827 6.48571 29.5684 7.78857C30.8713 9.09143 31.5227 10.6857 31.5227 12.5714C31.5227 14.4571 30.8713 16.0514 29.5684 17.3543C28.2827 18.6571 26.7227 19.3086 24.8884 19.3086C22.6084 19.3086 20.877 18.3657 19.6941 16.48V19H17.997V0.999999H19.6941V8.66286C20.877 6.77714 22.6084 5.83429 24.8884 5.83429ZM21.1598 16.1971C22.137 17.1743 23.337 17.6629 24.7598 17.6629C26.1827 17.6629 27.3827 17.1743 28.3598 16.1971C29.337 15.2029 29.8256 13.9943 29.8256 12.5714C29.8256 11.1486 29.337 9.94857 28.3598 8.97143C27.3827 7.97714 26.1827 7.48 24.7598 7.48C23.337 7.48 22.137 7.97714 21.1598 8.97143C20.1827 9.94857 19.6941 11.1486 19.6941 12.5714C19.6941 13.9943 20.1827 15.2029 21.1598 16.1971ZM36.0675 3.05714C35.8275 3.29714 35.5361 3.41714 35.1932 3.41714C34.8504 3.41714 34.5589 3.29714 34.3189 3.05714C34.0789 2.81714 33.9589 2.52571 33.9589 2.18286C33.9589 1.84 34.0789 1.54857 34.3189 1.30857C34.5589 1.06857 34.8504 0.948571 35.1932 0.948571C35.5361 0.948571 35.8275 1.06857 36.0675 1.30857C36.3075 1.54857 36.4275 1.84 36.4275 2.18286C36.4275 2.52571 36.3075 2.81714 36.0675 3.05714ZM34.3446 19V6.14286H36.0418V19H34.3446ZM48.9003 6.14286H50.7003L45.1975 20.1829C44.7003 21.4514 43.9889 22.4457 43.0632 23.1657C42.1546 23.9029 41.1346 24.2286 40.0032 24.1429V22.5486C41.546 22.72 42.7203 21.8286 43.526 19.8743L43.8603 19.0771L38.1003 6.14286H39.9003L44.7346 16.9171L48.9003 6.14286ZM62.0086 6.14286H63.8086L58.3057 20.1829C57.8086 21.4514 57.0972 22.4457 56.1715 23.1657C55.2629 23.9029 54.2429 24.2286 53.1115 24.1429V22.5486C54.6543 22.72 55.8286 21.8286 56.6343 19.8743L56.9686 19.0771L51.2086 6.14286H53.0086L57.8429 16.9171L62.0086 6.14286Z" fill="#0C0D36"/>
<path d="M77.4054 17.6371C76.1369 18.7686 74.4997 19.3343 72.494 19.3343C70.4883 19.3343 68.8511 18.7686 67.5826 17.6371C66.314 16.4886 65.6797 14.9543 65.6797 13.0343V0.999999H68.6369V12.8543C68.6369 13.9514 68.954 14.8257 69.5883 15.4771C70.2397 16.1286 71.2083 16.4543 72.494 16.4543C73.7797 16.4543 74.7397 16.1286 75.374 15.4771C76.0254 14.8257 76.3511 13.9514 76.3511 12.8543V0.999999H79.3083V13.0343C79.3083 14.9543 78.674 16.4886 77.4054 17.6371ZM95.7013 19H92.3328L88.3728 12.4943L84.4128 19H81.0442L86.7013 9.74286L81.3785 0.999999H84.7213L88.3728 6.99143L92.0242 0.999999H95.3928L90.0699 9.74286L95.7013 19Z" fill="#DF2E63"/>
</svg>
